<svg width="50" height="50" viewBox="0 0 50 50" fill="none" xmlns="http://www.w3.org/2000/svg">
<path d="M10.3914 8.24659L9.87531 4.88261C9.80715 4.43829 9.52908 4.05292 9.12814 3.84835L4.90487 1.69172C4.21612 1.3401 3.37158 1.61247 3.01933 2.30112C2.66708 2.98948 2.94029 3.83262 3.62932 4.18452L7.21368 6.01529L7.74205 9.45738C8.48836 8.80277 9.40794 8.38221 10.3914 8.24659Z" fill="#3D3DD9"/>
<path d="M11.5624 37.4676C12.1681 37.4676 12.7555 37.5468 13.3153 37.6947L14.0923 32.803C14.0983 32.7626 14.1026 32.7214 14.1055 32.6808H13.4236C12.6589 32.6808 11.9092 32.5071 11.2287 32.1819L11.29 32.5801L10.5011 37.5497C10.847 37.4959 11.2015 37.4676 11.5624 37.4676Z" fill="#3D3DD9"/>
<path d="M18.2992 42.9453H34.2427C34.4578 41.9076 34.9088 40.9554 35.5357 40.1455H17.0062C17.6328 40.9554 18.0839 41.9076 18.2992 42.9453Z" fill="#3D3DD9"/>
<path d="M44.899 13.0771C44.899 13.0771 11.1348 10.9966 11.0873 10.9966C10.9954 10.9966 10.9049 11.0023 10.8161 11.0132C9.55972 11.1625 8.63041 12.3367 8.84205 13.6382L11.1743 27.9701C11.3536 29.0719 12.3058 29.8813 13.423 29.8813H41.4979C42.5309 29.8813 43.4344 29.1869 43.6999 28.1896L46.9606 15.9339C47.3301 14.5448 46.3346 13.1658 44.899 13.0771ZM31.7357 26.3439C31.4674 26.612 31.1157 26.7462 30.764 26.7462C30.4123 26.7462 30.0604 26.612 29.792 26.3439L24.4135 20.9707L24.402 22.7665C24.3969 23.5221 23.7826 24.1312 23.0274 24.1312C23.0245 24.1312 23.0217 24.1312 23.0182 24.1312C22.2593 24.1264 21.6476 23.5075 21.6528 22.7491L21.6848 17.6671C21.6894 16.9158 22.2986 16.3075 23.0509 16.3029L28.1379 16.2703H28.1468C28.9017 16.2703 29.5162 16.8794 29.5211 17.6347C29.526 18.3932 28.9146 19.0117 28.1554 19.0169L26.3572 19.0283L31.7363 24.4016C32.2727 24.938 32.2727 25.8078 31.7357 26.3439Z" fill="#3D3DD9"/>
<path d="M15.696 44.3403C15.696 46.5896 13.8706 48.413 11.6188 48.413C9.36727 48.413 7.54216 46.5896 7.54216 44.3403C7.54216 42.091 9.36727 40.2674 11.6188 40.2674C13.8706 40.2674 15.696 42.091 15.696 44.3403Z" fill="#3D3DD9"/>
<path d="M45.0565 44.3403C45.0565 46.5896 43.2311 48.413 40.9795 48.413C38.7283 48.413 36.9029 46.5896 36.9029 44.3403C36.9029 42.091 38.7283 40.2674 40.9795 40.2674C43.2311 40.2674 45.0565 42.091 45.0565 44.3403Z" fill="#3D3DD9"/>
</svg>
