<svg width="212" height="70" viewBox="0 0 212 70" fill="none" xmlns="http://www.w3.org/2000/svg">
<path d="M76.0036 29.6364C75.8757 28.5568 75.3572 27.7188 74.4482 27.1222C73.5391 26.5256 72.424 26.2273 71.103 26.2273C70.1371 26.2273 69.2919 26.3835 68.5675 26.696C67.8501 27.0085 67.2891 27.4382 66.8842 27.9851C66.4865 28.532 66.2876 29.1534 66.2876 29.8494C66.2876 30.4318 66.4261 30.9325 66.7031 31.3516C66.9872 31.7635 67.3494 32.108 67.7898 32.3849C68.2301 32.6548 68.6918 32.8786 69.1747 33.0561C69.6577 33.2266 70.1016 33.3651 70.5064 33.4716L72.7223 34.0682C73.2905 34.2173 73.9226 34.4233 74.6186 34.6861C75.3217 34.9489 75.9929 35.3075 76.6321 35.7621C77.2784 36.2095 77.8111 36.7848 78.2301 37.4879C78.6491 38.1911 78.8587 39.054 78.8587 40.0767C78.8587 41.2557 78.5497 42.321 77.9318 43.2727C77.321 44.2244 76.4261 44.9808 75.2472 45.5419C74.0753 46.103 72.6513 46.3835 70.9751 46.3835C69.4126 46.3835 68.0597 46.1314 66.9162 45.6271C65.7798 45.1229 64.8849 44.4197 64.2315 43.5178C63.5852 42.6158 63.2195 41.5682 63.1342 40.375H65.8615C65.9325 41.1989 66.2095 41.8807 66.6925 42.4205C67.1825 42.9531 67.8004 43.3509 68.5462 43.6136C69.299 43.8693 70.1087 43.9972 70.9751 43.9972C71.9837 43.9972 72.8892 43.8338 73.6918 43.5071C74.4943 43.1733 75.13 42.7116 75.5987 42.1222C76.0675 41.5256 76.3018 40.8295 76.3018 40.0341C76.3018 39.3097 76.0994 38.7202 75.6946 38.2656C75.2898 37.8111 74.7571 37.4418 74.0966 37.1577C73.4361 36.8736 72.7223 36.625 71.9553 36.4119L69.2706 35.6449C67.5661 35.1548 66.2166 34.4553 65.2223 33.5462C64.228 32.6371 63.7308 31.4474 63.7308 29.9773C63.7308 28.7557 64.0611 27.6903 64.7216 26.7812C65.3892 25.8651 66.2841 25.1548 67.4062 24.6506C68.5355 24.1392 69.7962 23.8835 71.1882 23.8835C72.5945 23.8835 73.8445 24.1357 74.9382 24.6399C76.032 25.1371 76.8984 25.8189 77.5376 26.6854C78.1839 27.5518 78.5249 28.5355 78.5604 29.6364H76.0036ZM82.8617 46V29.6364H85.3759V46H82.8617ZM84.1401 26.9091C83.65 26.9091 83.2275 26.7422 82.8723 26.4084C82.5243 26.0746 82.3503 25.6733 82.3503 25.2045C82.3503 24.7358 82.5243 24.3345 82.8723 24.0007C83.2275 23.6669 83.65 23.5 84.1401 23.5C84.6301 23.5 85.0492 23.6669 85.3972 24.0007C85.7523 24.3345 85.9299 24.7358 85.9299 25.2045C85.9299 25.6733 85.7523 26.0746 85.3972 26.4084C85.0492 26.7422 84.6301 26.9091 84.1401 26.9091ZM92.495 36.1562V46H89.9808V29.6364H92.4098V32.1932H92.6229C93.0064 31.3622 93.5888 30.6946 94.37 30.1903C95.1513 29.679 96.1598 29.4233 97.3956 29.4233C98.5036 29.4233 99.473 29.6506 100.304 30.1051C101.135 30.5526 101.781 31.2344 102.243 32.1506C102.705 33.0597 102.935 34.2102 102.935 35.6023V46H100.421V35.7727C100.421 34.4872 100.087 33.4858 99.4197 32.7685C98.7521 32.044 97.8359 31.6818 96.6712 31.6818C95.8686 31.6818 95.1513 31.8558 94.5192 32.2038C93.8942 32.5518 93.4006 33.0597 93.0384 33.7273C92.6761 34.3949 92.495 35.2045 92.495 36.1562ZM109.873 40.0341L109.831 36.9233H110.342L117.501 29.6364H120.612L112.984 37.3494H112.771L109.873 40.0341ZM107.53 46V24.1818H110.044V46H107.53ZM117.927 46L111.535 37.9034L113.325 36.1562L121.123 46H117.927ZM121.297 26.5256V24.1818H137.66V26.5256H130.799V46H128.157V26.5256H121.297ZM139.698 46V29.6364H142.127V32.108H142.297C142.595 31.2983 143.135 30.6413 143.916 30.1371C144.698 29.6328 145.578 29.3807 146.558 29.3807C146.743 29.3807 146.974 29.3842 147.251 29.3913C147.528 29.3984 147.737 29.4091 147.879 29.4233V31.9801C147.794 31.9588 147.599 31.9268 147.294 31.8842C146.995 31.8345 146.679 31.8097 146.345 31.8097C145.55 31.8097 144.84 31.9766 144.215 32.3104C143.597 32.6371 143.107 33.0916 142.744 33.674C142.389 34.2493 142.212 34.9062 142.212 35.6449V46H139.698ZM155.675 46.3835C154.638 46.3835 153.697 46.1882 152.852 45.7976C152.007 45.3999 151.336 44.8281 150.838 44.0824C150.341 43.3295 150.093 42.4205 150.093 41.3551C150.093 40.4176 150.277 39.6577 150.647 39.0753C151.016 38.4858 151.51 38.0241 152.127 37.6903C152.745 37.3565 153.427 37.108 154.173 36.9446C154.926 36.7741 155.682 36.6392 156.442 36.5398C157.436 36.4119 158.243 36.3161 158.86 36.2521C159.485 36.1811 159.94 36.0639 160.224 35.9006C160.515 35.7372 160.661 35.4531 160.661 35.0483V34.9631C160.661 33.9119 160.373 33.0952 159.798 32.5128C159.23 31.9304 158.367 31.6392 157.209 31.6392C156.009 31.6392 155.068 31.902 154.386 32.4276C153.704 32.9531 153.225 33.5142 152.948 34.1108L150.561 33.2585C150.988 32.2642 151.556 31.4901 152.266 30.9361C152.983 30.375 153.765 29.9844 154.61 29.7642C155.462 29.5369 156.3 29.4233 157.124 29.4233C157.65 29.4233 158.253 29.4872 158.935 29.6151C159.624 29.7358 160.288 29.9879 160.927 30.3714C161.574 30.755 162.11 31.3338 162.536 32.108C162.962 32.8821 163.175 33.919 163.175 35.2188V46H160.661V43.7841H160.533C160.363 44.1392 160.078 44.5192 159.681 44.924C159.283 45.3288 158.754 45.6733 158.093 45.9574C157.433 46.2415 156.627 46.3835 155.675 46.3835ZM156.059 44.125C157.053 44.125 157.891 43.9297 158.573 43.5391C159.262 43.1484 159.78 42.6442 160.128 42.0263C160.483 41.4084 160.661 40.7585 160.661 40.0767V37.7756C160.554 37.9034 160.32 38.0206 159.958 38.1271C159.603 38.2266 159.191 38.3153 158.722 38.3935C158.26 38.4645 157.809 38.5284 157.369 38.5852C156.936 38.6349 156.584 38.6776 156.314 38.7131C155.661 38.7983 155.05 38.9368 154.482 39.1286C153.921 39.3132 153.466 39.5937 153.118 39.9702C152.777 40.3395 152.607 40.8437 152.607 41.483C152.607 42.3565 152.93 43.017 153.576 43.4645C154.23 43.9048 155.057 44.125 156.059 44.125ZM180.559 29.6364L174.508 46H171.951L165.9 29.6364H168.627L173.144 42.6761H173.314L177.831 29.6364H180.559ZM190.152 46.3409C188.575 46.3409 187.215 45.9929 186.072 45.2969C184.936 44.5938 184.058 43.6136 183.441 42.3565C182.83 41.0923 182.524 39.6222 182.524 37.946C182.524 36.2699 182.83 34.7926 183.441 33.5142C184.058 32.2287 184.918 31.2273 186.019 30.5099C187.127 29.7855 188.419 29.4233 189.896 29.4233C190.749 29.4233 191.59 29.5653 192.421 29.8494C193.252 30.1335 194.009 30.5952 194.691 31.2344C195.372 31.8665 195.916 32.7045 196.32 33.7486C196.725 34.7926 196.928 36.0781 196.928 37.6051V38.6705H184.314V36.4972H194.371C194.371 35.5739 194.186 34.75 193.817 34.0256C193.455 33.3011 192.936 32.7294 192.262 32.3104C191.594 31.8913 190.806 31.6818 189.896 31.6818C188.895 31.6818 188.029 31.9304 187.297 32.4276C186.573 32.9176 186.015 33.5568 185.624 34.3452C185.234 35.1335 185.039 35.9787 185.039 36.8807V38.3295C185.039 39.5653 185.252 40.6129 185.678 41.4723C186.111 42.3246 186.711 42.9744 187.478 43.4219C188.245 43.8622 189.137 44.0824 190.152 44.0824C190.813 44.0824 191.409 43.9901 191.942 43.8054C192.482 43.6136 192.947 43.3295 193.338 42.9531C193.728 42.5696 194.03 42.0937 194.243 41.5256L196.672 42.2074C196.416 43.0312 195.987 43.7557 195.383 44.3807C194.779 44.9986 194.034 45.4815 193.146 45.8295C192.258 46.1705 191.26 46.3409 190.152 46.3409ZM203.267 24.1818V46H200.752V24.1818H203.267Z" fill="#3D3DD9"/>
<path d="M45.9903 7.35588H24.0324V11.5225H45.9903V7.35588Z" fill="#CD5014"/>
<path d="M49.1064 1.6152C49.1064 0.831113 48.4708 0.195508 47.6867 0.195508H22.3136C21.5295 0.195508 20.8939 0.831113 20.8939 1.6152V6.78207C20.8939 7.56615 21.5295 8.20176 22.3136 8.20176H47.6867C48.4708 8.20176 49.1064 7.56615 49.1064 6.78207V1.6152Z" fill="#FF8C46"/>
<path d="M47.2603 42.1669C47.2041 42.7984 46.6751 43.2826 46.0411 43.2826H23.959C23.325 43.2826 22.7959 42.7984 22.7399 42.1669L20.0814 12.2333C20.0178 11.5177 20.5822 10.9011 21.3005 10.9011H48.6995C49.4179 10.9011 49.9822 11.5179 49.9186 12.2333L47.2603 42.1669Z" fill="#39AE96"/>
<path d="M39.0354 70C37.1931 70 35.6996 68.5065 35.6996 66.6642V40.0001C35.6996 38.1578 37.1931 36.6643 39.0354 36.6643C40.8777 36.6643 42.3712 38.1578 42.3712 40.0001V66.6642C42.3712 68.5065 40.8777 70 39.0354 70Z" fill="#415050"/>
<path d="M30.9825 70C29.1402 70 27.6467 68.5065 27.6467 66.6642V40.0001C27.6467 38.1578 29.1402 36.6643 30.9825 36.6643C32.8248 36.6643 34.3183 38.1578 34.3183 40.0001V66.6642C34.3183 68.5065 32.8247 70 30.9825 70Z" fill="#55696E"/>
<path d="M42.4856 13.3593C40.8066 13.3593 29.2005 13.3593 27.532 13.3593C23.8662 13.3593 20.869 16.2956 20.8507 19.9049C20.8507 19.9095 20.8507 19.9142 20.8507 19.9188V40.3419C20.8507 41.8772 22.0953 43.1218 23.6306 43.1218C25.166 43.1218 26.4105 41.8772 26.4105 40.3419V19.9281C26.4164 19.3994 26.9495 18.9191 27.5319 18.9191H27.6463V40.0001H42.3711V18.9191H42.4855C43.068 18.9191 43.601 19.3996 43.6069 19.9281V40.3419C43.6069 41.8772 44.8514 43.1218 46.3868 43.1218C47.9221 43.1218 49.1667 41.8772 49.1667 40.3419V19.9188C49.1667 19.9142 49.1667 19.9095 49.1667 19.9049C49.1487 16.2955 46.1515 13.3593 42.4856 13.3593Z" fill="#FFB69E"/>
<path d="M42.4856 13.3593H37.7439C37.6899 14.8251 36.3089 16.0375 34.8693 16.0375C33.3262 16.0375 32.1692 14.8292 32.0121 13.3593H27.5321C23.8663 13.3593 20.8692 16.2956 20.8508 19.9049V25.9386H26.4106V19.9281C26.4165 19.3994 26.9496 18.9191 27.532 18.9191H27.6464C27.6464 21.2826 27.6464 37.797 27.6464 40.0001H42.3712C42.3712 37.7828 42.3712 21.3149 42.3712 18.9191H42.4856C43.0682 18.9191 43.6011 19.3996 43.607 19.9281V25.9386H49.1668V19.9049C49.1487 16.2955 46.1515 13.3593 42.4856 13.3593Z" fill="#297F58"/>
<path d="M30.8896 13.3593H28.246C28.5477 15.5571 28.8637 21.0101 27.6466 24.3176C27.6466 25.8676 27.6466 27.6002 27.6466 29.3368C31.1358 25.3035 31.0395 14.9533 30.8896 13.3593Z" fill="#96DBBF"/>
<path d="M39.1135 13.3593C38.959 14.9542 38.8001 25.2741 42.3309 29.2734L42.3146 27.0285V24.2225C41.1374 20.9125 41.4475 15.536 41.7461 13.3595L39.1135 13.3593Z" fill="#96DBBF"/>
<path d="M35.0086 11.5229C38.1906 11.5229 40.7701 8.94343 40.7701 5.76147C40.7701 2.5795 38.1906 0 35.0086 0C31.8266 0 29.2471 2.5795 29.2471 5.76147C29.2471 8.94343 31.8266 11.5229 35.0086 11.5229Z" fill="#FFB69E"/>
<path d="M27.7479 0.195508H25.3284V8.20217H27.7479V0.195508Z" fill="#64822D"/>
<path d="M44.7717 0.195508H42.3522V8.20217H44.7717V0.195508Z" fill="#64822D"/>
</svg>
