<svg width="101" height="101" viewBox="0 0 101 101" fill="none" xmlns="http://www.w3.org/2000/svg">
<g clip-path="url(#clip0_4_533)">
<path d="M90.7309 79.4576C92.6945 77.3441 93.8984 74.5157 93.8984 71.4102C93.8984 64.8838 88.5888 59.5742 82.0625 59.5742C75.5362 59.5742 70.2266 64.8838 70.2266 71.4102C70.2266 74.5157 71.4305 77.3441 73.3941 79.4576C70.496 80.9762 68.0413 83.2299 66.2812 85.9711C64.5212 83.2301 62.0665 80.9762 59.1684 79.4576C61.132 77.3441 62.3359 74.5157 62.3359 71.4102C62.3359 64.8838 57.0263 59.5742 50.5 59.5742C43.9737 59.5742 38.6641 64.8838 38.6641 71.4102C38.6641 74.5157 39.868 77.3441 41.8316 79.4576C38.9335 80.9762 36.4788 83.2299 34.7188 85.9711C32.9587 83.2301 30.504 80.9762 27.6059 79.4576C29.5695 77.3441 30.7734 74.5157 30.7734 71.4102C30.7734 64.8838 25.4638 59.5742 18.9375 59.5742C12.4112 59.5742 7.10156 64.8838 7.10156 71.4102C7.10156 74.5157 8.30547 77.3441 10.2691 79.4576C4.28796 82.5916 0.197266 88.8607 0.197266 96.0684V98.041C0.197266 99.6752 1.5221 101 3.15625 101H97.8438C99.4779 101 100.803 99.6752 100.803 98.041V96.0684C100.803 88.8607 96.712 82.5916 90.7309 79.4576ZM18.9375 65.4922C22.2007 65.4922 24.8555 68.147 24.8555 71.4102C24.8555 74.6733 22.2007 77.3281 18.9375 77.3281C15.6743 77.3281 13.0195 74.6733 13.0195 71.4102C13.0195 68.147 15.6743 65.4922 18.9375 65.4922ZM6.15271 95.082C6.65811 88.4709 12.1991 83.2461 18.9375 83.2461C25.6759 83.2461 31.2169 88.4709 31.7223 95.082H6.15271ZM50.5 65.4922C53.7632 65.4922 56.418 68.147 56.418 71.4102C56.418 74.6733 53.7632 77.3281 50.5 77.3281C47.2368 77.3281 44.582 74.6733 44.582 71.4102C44.582 68.147 47.2368 65.4922 50.5 65.4922ZM37.7152 95.082C38.2206 88.4709 43.7616 83.2461 50.5 83.2461C57.2384 83.2461 62.7794 88.4709 63.2848 95.082H37.7152ZM82.0625 65.4922C85.3257 65.4922 87.9805 68.147 87.9805 71.4102C87.9805 74.6733 85.3257 77.3281 82.0625 77.3281C78.7993 77.3281 76.1445 74.6733 76.1445 71.4102C76.1445 68.147 78.7993 65.4922 82.0625 65.4922ZM69.2777 95.082C69.7831 88.4709 75.3241 83.2461 82.0625 83.2461C88.8009 83.2461 94.3419 88.4709 94.8473 95.082H69.2777Z" fill="#3D3DD9"/>
<path d="M34.7188 53.2617H66.2812C72.2637 53.2617 77.1309 48.3946 77.1309 42.4121V10.8496C77.1309 4.86714 72.2637 0 66.2812 0H34.7188C28.7363 0 23.8691 4.86714 23.8691 10.8496V42.4121C23.8691 48.3946 28.7363 53.2617 34.7188 53.2617ZM29.7871 10.8496C29.7871 8.1303 31.9994 5.91797 34.7188 5.91797H66.2812C69.0006 5.91797 71.2129 8.1303 71.2129 10.8496V42.4121C71.2129 45.1314 69.0006 47.3438 66.2812 47.3438H34.7188C31.9994 47.3438 29.7871 45.1314 29.7871 42.4121V10.8496Z" fill="#3D3DD9"/>
<path d="M43.5257 37.0925C44.6811 38.2481 46.5549 38.2481 47.7103 37.0925L64.4489 20.3539C65.6045 19.1983 65.6045 17.3249 64.4489 16.1693C63.2935 15.0137 61.4199 15.0137 60.2643 16.1693L45.6181 30.8155L40.736 25.9336C39.5806 24.778 37.707 24.778 36.5514 25.9336C35.3958 27.0891 35.3958 28.9626 36.5514 30.1181L43.5257 37.0925Z" fill="#3D3DD9"/>
</g>
<defs>
<clipPath id="clip0_4_533">
<rect width="101" height="101" fill="white"/>
</clipPath>
</defs>
</svg>
