<svg width="101" height="101" viewBox="0 0 101 101" fill="none" xmlns="http://www.w3.org/2000/svg">
<path d="M89.5183 74.7264L72.3197 70.6797C72.3083 70.3934 72.2221 70.1112 72.0582 69.8652L69.7665 66.4276C69.2396 65.6374 68.3967 65.116 67.4546 64.9978C67.3907 64.9897 67.3269 64.9886 67.2632 64.9844V61.8339L67.87 61.3786C70.2299 59.6087 71.8041 57.0516 72.3424 54.1995C73.0553 53.4436 73.5822 52.6914 73.971 52.0012L74.0172 52.002C74.0511 52.0026 74.0849 52.003 74.1186 52.003C75.4229 52.003 76.6501 51.5021 77.5844 50.5862C78.5429 49.6466 79.0708 48.3899 79.0708 47.0479V40.3791C79.0708 39.0527 78.5533 37.8062 77.614 36.8697C77.0999 36.3574 76.4927 35.9783 75.832 35.7353L77.3762 20.2943C77.3818 20.2418 77.3843 20.1893 77.3843 20.1369V18.4501C77.3841 8.27648 69.1077 0 58.9343 0H42.0659C31.8925 0 23.616 8.27648 23.616 18.4499V20.1367C23.616 20.1892 23.6186 20.2416 23.6239 20.2939L25.1673 35.7287C24.5065 35.9724 23.8999 36.357 23.386 36.8695C22.4466 37.806 21.9292 39.0523 21.9292 40.3789V47.0477C21.9292 48.3898 22.4569 49.6464 23.4156 50.586C24.3499 51.5019 25.5771 52.0028 26.8808 52.0028C26.9145 52.0028 26.9484 52.0026 26.9822 52.0018L28.4352 51.9738L28.4615 52.548C28.6209 56.0542 30.3227 59.2726 33.1306 61.3784L33.7373 61.8337V64.984C33.6734 64.9882 33.6097 64.9896 33.5456 64.9974C32.6033 65.116 31.7607 65.6372 31.234 66.4272L28.9424 69.865C28.7783 70.111 28.6921 70.3934 28.6808 70.6795L11.4822 74.7262C7.70163 75.6157 5.06104 78.9496 5.06104 82.8336V96.0449C5.06104 98.7772 7.28382 101 10.0162 101H90.9848C93.7171 101 95.9399 98.7772 95.9399 96.0449V82.8336C95.9395 78.9496 93.2989 75.6157 89.5183 74.7264ZM68.9388 70.8878L62.0586 86.0242C61.9586 86.2441 61.7731 86.3163 61.6711 86.3398C61.5636 86.3647 61.3533 86.3816 61.1527 86.2163C57.8872 83.5238 55.0045 81.6486 53.1946 80.5656L66.9764 68.162C66.9863 68.1531 67.0121 68.1296 67.06 68.1355C67.108 68.1417 67.1273 68.1707 67.1346 68.1817L68.9388 70.8878ZM75.9078 40.3791V47.0477H75.9082C75.9082 47.5333 75.7174 47.9876 75.3704 48.3275C75.0238 48.6674 74.5666 48.8485 74.0791 48.8396L72.7085 48.813L72.9224 44.1082L73.1733 38.5893L74.1099 38.5867H74.1156C74.5932 38.5867 75.0426 38.7724 75.3807 39.1097C75.7204 39.4484 75.9078 39.8991 75.9078 40.3791ZM26.92 48.8394C26.4322 48.8495 25.9763 48.6672 25.6295 48.3273C25.2827 47.9874 25.0918 47.5329 25.0918 47.0475V40.3789C25.0918 39.8991 25.279 39.4484 25.6187 39.1095C25.9572 38.772 26.4062 38.5865 26.8849 38.5865H26.8908L27.8267 38.5891L27.9551 41.4134L28.2914 48.8132L26.92 48.8394ZM28.3153 35.4238L26.7788 20.0578V18.4499C26.7788 10.0205 33.6365 3.16276 42.0659 3.16276H58.9343C67.3636 3.16276 74.2214 10.0205 74.2214 18.4499V20.0578L72.6847 35.4238H72.0108L68.9124 21.4805C68.8033 20.99 68.4679 20.5805 68.0085 20.3773C67.5491 20.1742 67.0202 20.2012 66.5842 20.4505C55.2823 26.9086 33.847 26.9895 33.6316 26.9895C32.9852 26.9897 32.4036 27.3834 32.1636 27.9837L29.1874 35.4238H28.3153ZM31.6205 52.404L31.5246 50.2948C31.5246 50.2937 31.5246 50.2923 31.5246 50.2909L31.1117 41.2133L30.9705 38.106C31.4483 37.789 31.831 37.3296 32.0553 36.7687L34.7069 30.1394C39.0838 30.0511 55.4794 29.3723 66.272 24.1818L68.9696 36.3221C69.1228 37.0118 69.5089 37.5923 70.0336 37.9938L69.7502 44.2266L69.4744 50.2909C69.4744 50.2915 69.4744 50.2925 69.4744 50.2931L69.3785 52.4042C69.3742 52.5023 69.3649 52.5995 69.357 52.6971C67.2727 54.5169 63.5365 56.2558 56.8537 56.5906C56.2532 55.0639 54.7674 53.9792 53.0301 53.9792H51.3433C49.0761 53.9792 47.2317 55.8238 47.2317 58.0908C47.2317 60.358 49.0763 62.2024 51.3433 62.2024H53.0301C54.7019 62.2024 56.1414 61.1979 56.7833 59.762C61.3155 59.5551 64.7258 58.7303 67.291 57.6205C66.8993 58.0697 66.4592 58.4824 65.9719 58.8479L58.9972 64.079C57.5288 65.1803 55.7092 65.7869 53.8734 65.7869H47.126C45.2902 65.7869 43.4706 65.1803 42.0022 64.079L35.0275 58.8479C32.9787 57.3116 31.7371 54.9625 31.6205 52.404ZM53.9792 58.0908C53.9792 58.6139 53.5535 59.0396 53.0303 59.0396H51.3435C50.8203 59.0396 50.3946 58.6139 50.3946 58.0908C50.3946 57.5676 50.8203 57.1419 51.3435 57.1419H53.0303C53.5535 57.1419 53.9792 57.5676 53.9792 58.0908ZM33.8654 68.1817C33.8727 68.1707 33.892 68.1417 33.9397 68.1355C33.9867 68.1296 34.0135 68.1531 34.0234 68.162L47.8051 80.5656C45.9952 81.6486 43.1126 83.524 39.847 86.2163C39.6464 86.3816 39.4363 86.3649 39.3282 86.3398C39.2267 86.3163 39.041 86.2439 38.9412 86.0242L32.0612 70.8878L33.8654 68.1817ZM20.2422 97.8372H10.0156C9.02726 97.8372 8.2232 97.0332 8.2232 96.0449V82.8336C8.2232 82.2546 8.32006 81.6962 8.49622 81.173L17.9685 89.6474C19.4133 90.945 20.242 92.8032 20.242 94.7453L20.2422 97.8372ZM48.9185 97.8372H23.405V94.7455C23.405 91.9072 22.1939 89.1915 20.0801 87.2924L10.3929 78.6259C10.9259 78.2478 11.5357 77.9627 12.2064 77.8051L29.8449 73.6548L36.0623 87.3332C36.5456 88.3969 37.4765 89.1579 38.6159 89.4215C38.9012 89.4876 39.1884 89.5199 39.473 89.5199C40.3355 89.5199 41.1739 89.2221 41.8594 88.6567C44.6676 86.3416 47.1989 84.6516 48.9187 83.5943L48.9185 97.8372ZM36.8997 66.4955V64.2056L40.1047 66.6093C42.1172 68.1186 44.6106 68.9499 47.1262 68.9499H53.8736C56.3892 68.9499 58.8828 68.1186 60.8951 66.6093L64.1001 64.2056V66.4955L50.5 78.7356L36.8997 66.4955ZM77.595 94.7453V97.837H52.0815V83.5941C53.8014 84.6518 56.3327 86.3414 59.1406 88.6565C59.8261 89.2219 60.6647 89.5197 61.5269 89.5197C61.8116 89.5197 62.0988 89.4872 62.3841 89.4213C63.5235 89.1577 64.4544 88.3965 64.9377 87.333L71.1551 73.6546L88.7936 77.8049C89.4641 77.9627 90.0738 78.2478 90.6067 78.6257L80.9174 87.2942C78.8062 89.1913 77.595 91.907 77.595 94.7453ZM92.7766 96.0449C92.7766 97.0332 91.9725 97.8372 90.9842 97.8372H80.7578V94.7455C80.7578 92.8034 81.5865 90.9454 83.0287 89.6497L92.5036 81.1728C92.6799 81.6962 92.7766 82.2544 92.7766 82.8336V96.0449Z" fill="#3D3DD9"/>
</svg>
