<svg width="101" height="101" viewBox="0 0 101 101" fill="none" xmlns="http://www.w3.org/2000/svg">
<path d="M94.5865 63.4179L59.0253 20.2005C58.0456 19.0103 56.6866 18.2234 55.1545 18.1401L26.901 16.5554L14.9465 2.02752C12.9957 -0.344103 9.48646 -0.683846 7.11046 1.27132C4.73445 3.22648 4.39471 6.73131 6.34987 9.10951L18.2277 23.5431L14.5497 51.5598C14.3546 53.0634 14.7075 54.6548 15.6785 55.8318L51.2617 99.0734C53.1796 101.406 56.7743 101.618 59.0801 99.7221L94.0583 70.9383C96.3641 69.0379 96.511 65.7501 94.5865 63.4179ZM38.6912 39.3006C35.4691 41.955 30.6798 41.4596 27.997 38.1981C26.7958 36.7404 26.2215 34.9782 26.2391 33.2334C27.3131 34.3184 28.7466 34.8773 30.191 34.8773C31.436 34.8773 32.6898 34.4631 33.7266 33.6082C36.085 31.6684 36.4357 28.1965 34.5266 25.8227C36.4598 26.0221 38.3273 26.9602 39.6688 28.5888C42.3516 31.8525 41.9133 36.6462 38.6912 39.3006Z" fill="#3D3DD9"/>
</svg>
