<svg width="50" height="50" viewBox="0 0 50 50" fill="none" xmlns="http://www.w3.org/2000/svg">
<path d="M19.5312 35.9375C23.5 35.9375 27.125 34.5312 29.9688 32.1719L44.2031 46.4062C44.5156 46.7188 44.9062 46.875 45.3125 46.875C45.7188 46.875 46.1094 46.7188 46.4219 46.4219C47.0312 45.8125 47.0312 44.8281 46.4219 44.2188L32.1875 29.9844C34.5312 27.125 35.9375 23.5 35.9375 19.5312C35.9375 10.4844 28.5781 3.125 19.5312 3.125C10.4844 3.125 3.125 10.4844 3.125 19.5312C3.125 28.5781 10.4844 35.9375 19.5312 35.9375ZM19.5312 6.25C26.8594 6.25 32.8125 12.2031 32.8125 19.5312C32.8125 26.8594 26.8594 32.8125 19.5312 32.8125C12.2031 32.8125 6.25 26.8594 6.25 19.5312C6.25 12.2031 12.2031 6.25 19.5312 6.25Z" fill="#3D3DD9"/>
</svg>
