<svg width="101" height="101" viewBox="0 0 101 101" fill="none" xmlns="http://www.w3.org/2000/svg">
<g clip-path="url(#clip0_4_538)">
<path d="M86.4879 34.1917C90.6212 30.6201 93.2411 25.3425 93.2411 19.4638C93.2411 8.73132 84.5098 0 73.7773 0C63.0449 0 54.3135 8.73132 54.3135 19.4638C54.3135 25.3371 56.9289 30.6108 61.0553 34.1824C58.601 35.4808 56.3417 37.1599 54.3598 39.1803C51.9024 38.6841 49.2648 38.6502 46.6402 39.1803C44.6575 37.1599 42.399 35.4808 39.944 34.1824C44.0711 30.6108 46.6857 25.3371 46.6857 19.4638C46.6865 8.73132 37.9551 0 27.2227 0C16.4902 0 7.75886 8.73132 7.75886 19.4638C7.75886 25.3425 10.3788 30.6201 14.5121 34.1917C5.88869 38.765 0 47.8361 0 58.2589V81.5362C0 83.7154 1.76614 85.4815 3.94531 85.4815H25.8634C24.2059 88.9961 23.2773 92.9183 23.2773 97.0547C23.2773 99.2339 25.0435 101 27.2227 101H73.7773C75.9565 101 77.7227 99.2339 77.7227 97.0547C77.7227 92.9183 76.7941 88.9961 75.1366 85.4815H97.0547C99.2339 85.4815 101 83.7154 101 81.5362V58.2589C101 47.8361 95.1113 38.765 86.4879 34.1917ZM62.2042 19.4638C62.2042 13.0819 67.3963 7.89062 73.7773 7.89062C80.1584 7.89062 85.3505 13.0819 85.3505 19.4638C85.3505 25.8449 80.1584 31.0362 73.7773 31.0362C67.3963 31.0362 62.2042 25.8449 62.2042 19.4638ZM62.0732 58.2589C62.0732 64.6407 56.8811 69.832 50.5 69.832C44.1189 69.832 38.9268 64.6407 38.9268 58.2589C38.9268 51.8778 44.1189 46.6865 50.5 46.6865C56.8811 46.6865 62.0732 51.8778 62.0732 58.2589ZM15.6495 19.4638C15.6495 13.0819 20.8416 7.89062 27.2227 7.89062C33.6037 7.89062 38.7958 13.0819 38.7958 19.4638C38.7958 25.8449 33.6037 31.0362 27.2227 31.0362C20.8416 31.0362 15.6495 25.8449 15.6495 19.4638ZM7.89062 58.2589C7.89062 47.5996 16.5626 38.9268 27.2227 38.9268C31.4415 38.9268 35.4631 40.2823 38.7627 42.7435C28.8578 50.255 28.4155 64.8873 37.7895 72.9875C35.4708 74.2173 33.3502 75.7716 31.4885 77.5909H7.89062V58.2589ZM31.5725 93.1094C33.3988 84.3349 41.1915 77.7227 50.5 77.7227C59.8085 77.7227 67.6012 84.3349 69.4275 93.1094H31.5725ZM93.1094 77.5909H69.5115C67.6498 75.7723 65.5292 74.2173 63.2105 72.9875C72.5783 64.8927 72.1484 50.2596 62.2373 42.7435C65.5369 40.2823 69.5585 38.9268 73.7773 38.9268C84.4374 38.9268 93.1094 47.5996 93.1094 58.2589V77.5909Z" fill="#3D3DD9"/>
</g>
<defs>
<clipPath id="clip0_4_538">
<rect width="101" height="101" fill="white"/>
</clipPath>
</defs>
</svg>
